Coordinates
nRows=7
nColumns=38

# SIMM Motion File Header:
name Coordinates
datacolumns 38
datarows 7
otherdata 1
range 1.74580000000000000000 1.75180000000000000000

Units are S.I. units (second, meters, Newtons, ...)
Angles are in degrees.

endheader
time	pelvis_tilt	pelvis_list	pelvis_rotation	pelvis_tx	pelvis_ty	pelvis_tz	hip_flexion_r	hip_adduction_r	hip_rotation_r	knee_angle_r	ankle_angle_r	subtalar_angle_r	mtp_angle_r	hip_flexion_l	hip_adduction_l	hip_rotation_l	knee_angle_l	ankle_angle_l	subtalar_angle_l	mtp_angle_l	lumbar_extension	lumbar_bending	lumbar_rotation	arm_flex_r	arm_add_r	arm_rot_r	elbow_flex_r	pro_sup_r	wrist_flex_r	wrist_dev_r	arm_flex_l	arm_add_l	arm_rot_l	elbow_flex_l	pro_sup_l	wrist_flex_l	wrist_dev_l
      1.74580000000000000000	     -2.65285525285543190000	      0.49030446005567674000	     -4.37268742823119980000	      0.97690598879060397000	      1.00184016221502390000	     -0.33185483288428819000	     29.61455647553607700000	      8.01333766006249530000	     10.86040608571483500000	    -13.66235081733396800000	      8.05602452850969360000	      0.00000000000000000000	      0.00000000000000000000	    -16.58741841059107400000	      5.08033209115727580000	     -4.38002234214221000000	    -66.81364846520337200000	    -15.99609075851710200000	      0.00000000000000000000	      0.00000000000000000000	     -5.55615926197046580000	      1.48262509963134640000	    -20.03029277047065500000	    -54.30691939722353100000	    -24.86920815616399900000	     -7.03841797232846920000	     80.43591043865075100000	    107.86228349371750000000	      0.00000000000000000000	      0.00000000000000000000	    -28.88020993170354300000	    -20.44862946100572300000	      3.15844106549890440000	    121.42611015134895000000	    120.23792834012211000000	      0.00000000000000000000	      0.00000000000000000000
      1.74679999999999990000	     -2.59679027578219300000	      0.46175775565783861000	     -4.41875470389194280000	      0.97680965098256678000	      1.00126878887374930000	     -0.33182193587598069000	     29.47006389272505400000	      8.07075202632942990000	     10.71278761249664100000	    -13.73824534100393000000	      8.09351911486098000000	     -0.00000000000000000002	      0.00000000000000000209	    -16.37490514655177500000	      4.96773897787823590000	     -4.55575683292726640000	    -67.58144606729150900000	    -15.83744902358021300000	     -0.00000000000000000059	      0.00000000000000000086	     -5.65546294771472620000	      1.51603939396223920000	    -19.92445618334994600000	    -54.19967700779608300000	    -24.83868576591953200000	     -7.01345614374346040000	     80.47579155399422700000	    107.82185100964871000000	      0.00000000000000000008	     -0.00000000000000000036	    -28.92404279559475500000	    -20.38925910961042100000	      3.14059317000162560000	    121.28759429858982000000	    120.22476149114782000000	     -0.00000000000000000015	     -0.00000000000000000067
      1.74780000000000000000	     -2.54244532189598930000	      0.43297650961579187000	     -4.46380326476599800000	      0.97671189449805784000	      1.00068635970045850000	     -0.33179046456842870000	     29.32696076148145900000	      8.12795730813785330000	     10.56723855659784700000	    -13.81950217613578000000	      8.13379622070447010000	      0.00000000000000000056	      0.00000000000000000014	    -16.15976605607055600000	      4.85350516099542690000	     -4.72803808355742650000	    -68.34753473009512000000	    -15.67728183853405700000	     -0.00000000000000000170	      0.00000000000000000114	     -5.75294808417432610000	      1.54976959977958750000	    -19.81866391447227500000	    -54.09058901488466400000	    -24.80931190378341400000	     -6.98615282767451350000	     80.51543447424107600000	    107.78152077544429000000	     -0.00000000000000000048	     -0.00000000000000000112	    -28.96821249459019800000	    -20.32936435242235600000	      3.12230446511207660000	    121.14718427530502000000	    120.20885603607104000000	      0.00000000000000000003	     -0.00000000000000000193
      1.74879999999999990000	     -2.48997778674741090000	      0.40385887366386042000	     -4.50807792273473850000	      0.97661251548648886000	      1.00009285621821390000	     -0.33176014229938983000	     29.18548468612248200000	      8.18511224964635350000	     10.42354605664355600000	    -13.90604141651461000000	      8.16831744402787050000	      0.00000000000000000504	     -0.00000000000000000100	    -15.94183254204883900000	      4.73758704609003980000	     -4.89716110642652500000	    -69.11189855441051600000	    -15.51543996800260700000	     -0.00000000000000000161	      0.00000000000000000409	     -5.84847167396040830000	      1.58394695437986450000	    -19.71261532160269800000	    -53.97967944121418800000	    -24.78107163231779400000	     -6.95656069129519050000	     80.55480578766938000000	    107.74129760812362000000	     -0.00000000000000000165	     -0.00000000000000000203	    -29.01259557430372000000	    -20.26896267493136200000	      3.10370076919120490000	    121.00475894732344000000	    120.19023693290976000000	      0.00000000000000000038	     -0.00000000000000000349
      1.74980000000000000000	     -2.43965421165000730000	      0.37446306547403257000	     -4.55181476512419540000	      0.97651155068260098000	      0.99948782029740357000	     -0.33173062757012162000	     29.04585260308643800000	      8.24232522601816870000	     10.28242933089804900000	    -13.99757738311286200000	      8.19786003404194830000	      0.00000000000000000530	      0.00000000000000000042	    -15.72084375724554700000	      4.62010096163805880000	     -5.06335948234983400000	    -69.87449661895267600000	    -15.35174674575912100000	     -0.00000000000000000167	      0.00000000000000000627	     -5.94171288583036270000	      1.61851927964497900000	    -19.60603552370512400000	    -53.86708044325847300000	    -24.75393314156543000000	     -6.92474401002964160000	     80.59391653509695200000	    107.70120029901567000000	     -0.00000000000000000371	     -0.00000000000000000133	    -29.05717756392558500000	    -20.20810553930983400000	      3.08489218920936460000	    120.86026321262432000000	    120.16894293361952000000	      0.00000000000000000151	     -0.00000000000000000492
      1.75079999999999990000	     -2.39166858423303590000	      0.34478715769389762000	     -4.59530053635533080000	      0.97640897582901531000	      0.99887096449372337000	     -0.33170149471933524000	     28.90823468421712100000	      8.29979265452662850000	     10.14482891366120800000	    -14.09387088785743500000	      8.22089665771813040000	      0.00000000000000000873	      0.00000000000000000336	    -15.49662531526794300000	      4.50110555881166260000	     -5.22693497493908320000	    -70.63527065762610800000	    -15.18604099814876700000	     -0.00000000000000000324	      0.00000000000000000550	     -6.03244991486734690000	      1.65349217585191740000	    -19.49859208275798700000	    -53.75290163294617000000	    -24.72785745031907100000	     -6.89076641003163460000	     80.63277105430729800000	    107.66124455738354000000	     -0.00000000000000000336	      0.00000000000000000255	    -29.10190136605017500000	    -20.14684692884555900000	      3.06599820642696750000	    120.71362895588683000000	    120.14501829892650000000	      0.00000000000000000277	     -0.00000000000000000690
      1.75180000000000000000	     -2.34614201818364170000	      0.31494693743133351000	     -4.63942061972420380000	      0.97630474758827401000	      0.99824198003302156000	     -0.33167157625067378000	     28.77281160058041800000	      8.35781501953763590000	     10.01110303697438800000	    -14.19489451507856600000	      8.23752680544166080000	      0.00000000000000002247	      0.00000000000000000192	    -15.26917334548476300000	      4.38093947689104720000	     -5.38869972199061740000	    -71.39394422489559100000	    -15.01822598057616000000	     -0.00000000000000000672	      0.00000000000000000900	     -6.12054470840526930000	      1.68869752953322360000	    -19.38938768999775400000	    -53.63730853202539400000	    -24.70279684084065900000	     -6.85469711139299690000	     80.67141669439919800000	    107.62143038725239000000	     -0.00000000000000000717	      0.00000000000000000625	    -29.14668376985770600000	    -20.08524007365288700000	      3.04714086129101020000	    120.56481894827839000000	    120.11851936991468000000	      0.00000000000000000378	     -0.00000000000000000960
